<?xml version="1.0" encoding="utf-8"?>
<!-- Generator: Adobe Illustrator 16.0.0, SVG Export Plug-In . SVG Version: 6.00 Build 0)  -->
<!DOCTYPE svg PUBLIC "-//W3C//DTD SVG 1.1//EN" "http://www.w3.org/Graphics/SVG/1.1/DTD/svg11.dtd">
<svg version="1.1" id="Laag_1" xmlns="http://www.w3.org/2000/svg" xmlns:xlink="http://www.w3.org/1999/xlink" x="0px" y="0px"
	 width="40px" height="40px" viewBox="0 0 40 40" enable-background="new 0 0 40 40" xml:space="preserve">
<path id="twitter-icon" fill="#B2B2B2" d="M33.54,11.602c-0.997,0.442-2.067,0.741-3.191,0.875c1.147-0.688,2.028-1.776,2.443-3.074
	c-1.073,0.637-2.263,1.099-3.528,1.348c-1.014-1.08-2.458-1.754-4.056-1.754c-3.586,0-6.222,3.347-5.412,6.822
	c-4.617-0.231-8.711-2.444-11.451-5.805c-1.455,2.497-0.755,5.764,1.719,7.417c-0.91-0.028-1.768-0.278-2.516-0.694
	c-0.061,2.574,1.784,4.98,4.456,5.518c-0.782,0.212-1.639,0.261-2.509,0.095c0.707,2.208,2.759,3.813,5.19,3.858
	c-2.336,1.831-5.277,2.648-8.225,2.301c2.459,1.576,5.379,2.496,8.516,2.496c10.315,0,16.143-8.712,15.792-16.526
	C31.853,13.694,32.795,12.716,33.54,11.602z"/>
</svg>
