<?xml version="1.0" encoding="utf-8"?>
<!-- Generator: Adobe Illustrator 16.0.0, SVG Export Plug-In . SVG Version: 6.00 Build 0)  -->
<!DOCTYPE svg PUBLIC "-//W3C//DTD SVG 1.1//EN" "http://www.w3.org/Graphics/SVG/1.1/DTD/svg11.dtd">
<svg version="1.1" id="Laag_1" xmlns="http://www.w3.org/2000/svg" xmlns:xlink="http://www.w3.org/1999/xlink" x="0px" y="0px"
	 width="40px" height="40px" viewBox="10 10 40 40" enable-background="new 10 10 40 40" xml:space="preserve">
<path id="dribbble-icon" fill="#B2B2B2" d="M30,16.499c-7.456,0-13.5,6.044-13.5,13.5c0,7.456,6.044,13.5,13.5,13.5
	s13.5-6.045,13.5-13.5C43.501,22.543,37.457,16.499,30,16.499z M41.121,29.371c-2.897-0.475-5.561-0.5-7.99-0.082
	c-0.275-0.634-0.559-1.265-0.863-1.89c2.598-1.125,4.686-2.654,6.242-4.592C40.028,24.6,40.981,26.876,41.121,29.371z
	 M36.798,21.178c-1.355,1.748-3.226,3.131-5.609,4.14c-1.143-2.094-2.45-4.135-3.925-6.118c0.876-0.222,1.791-0.353,2.736-0.353
	C32.56,18.848,34.914,19.723,36.798,21.178z M24.968,20.06c1.499,1.96,2.825,3.979,3.979,6.054c-2.733,0.805-5.998,1.219-9.77,1.245
	C19.956,24.168,22.104,21.516,24.968,20.06z M18.848,30c0-0.097,0.012-0.191,0.014-0.288c4.33-0.006,8.065-0.504,11.194-1.488
	c0.262,0.534,0.513,1.071,0.753,1.611c-3.802,1.188-6.936,3.625-9.379,7.291C19.82,35.192,18.848,32.708,18.848,30z M23.156,38.786
	c2.215-3.475,5.043-5.735,8.548-6.781c1.043,2.723,1.811,5.524,2.298,8.393c-1.245,0.48-2.59,0.754-4.001,0.754
	C27.42,41.152,25.047,40.263,23.156,38.786z M36.19,39.269c-0.493-2.646-1.215-5.235-2.16-7.759c2.11-0.298,4.433-0.22,6.974,0.221
	C40.513,34.866,38.723,37.573,36.19,39.269z"/>
</svg>
