<?xml version="1.0" encoding="utf-8"?>
<!-- Generator: Adobe Illustrator 16.0.0, SVG Export Plug-In . SVG Version: 6.00 Build 0)  -->
<!DOCTYPE svg PUBLIC "-//W3C//DTD SVG 1.1//EN" "http://www.w3.org/Graphics/SVG/1.1/DTD/svg11.dtd">
<svg version="1.1" id="Laag_1" xmlns="http://www.w3.org/2000/svg" xmlns:xlink="http://www.w3.org/1999/xlink" x="0px" y="0px"
	 width="40px" height="40px" viewBox="0 0 40 40" enable-background="new 0 0 40 40" xml:space="preserve">
<path id="globe-4-icon" fill="#B2B2B2" d="M21.241,15.858c-0.005-0.008,0.021-0.091,0.044-0.083
	c0.015,0.004,0.009,0.012,0.027,0.013c0.018,0.001,0.029-0.02,0.047-0.016c0.029,0.005,0.049,0.032,0.08,0.032
	c0.023,0.001,0.037-0.022,0.059-0.023c0.017-0.002,0.031,0.008,0.047,0.004c0.017-0.003,0.03-0.015,0.044-0.023
	c0.029-0.017,0.025-0.002,0.058-0.006c0.01-0.001,0.019-0.007,0.029-0.009c0.002,0,0.004,0,0.006,0
	c0.015,0.001,0.021,0.01,0.018,0.028c-0.007,0.038-0.038,0.066-0.042,0.105c-0.004,0.025,0.029,0.039,0.021,0.066
	c-0.021,0.068-0.041,0.072-0.054,0.074c-0.019,0.003-0.032-0.003-0.04-0.006c-0.023-0.011-0.039-0.033-0.062-0.046
	c-0.012-0.006-0.025-0.009-0.038-0.014c-0.039-0.017-0.15-0.094-0.185-0.092c-0.012,0.001-0.022,0.01-0.034,0.009
	c-0.001,0-0.001,0-0.002,0C21.259,15.873,21.248,15.871,21.241,15.858z M18.913,12.535C18.913,12.535,18.913,12.535,18.913,12.535
	c-0.002,0.003-0.005,0.007-0.007,0.01c-0.003,0.007-0.001,0.016,0.005,0.02c0.007,0.004,0.015,0.003,0.021-0.003
	c0.006-0.007,0.014-0.017,0.024-0.028c0.01-0.012,0.013-0.016,0.027-0.022c0.011-0.005,0.022-0.009,0.034-0.013
	c0.004-0.001,0.009-0.001,0.013,0.002s0.006,0.008,0.006,0.012c-0.001,0.026,0.007,0.054-0.019,0.076
	c-0.015,0.011-0.026,0.021-0.036,0.029c-0.009,0.007-0.011,0.02-0.006,0.03s0.018,0.015,0.029,0.012c0,0,0,0,0.001,0
	c0.001,0.001,0.001,0.002,0.001,0.003c0.008,0.031,0.009,0.031,0.05,0.006c0.001-0.001,0.002-0.001,0.004,0
	c0.001,0,0.001,0.001,0.002,0.001c0.005,0.011,0.014,0.02,0.025,0.025c0.015,0.007,0.027,0.021,0.03,0.039
	c0,0.001,0.001,0.002,0.001,0.003c0,0.001,0,0.002,0.001,0.003c0.014,0.043,0.002,0.09-0.029,0.123
	c-0.032,0.031-0.08,0.042-0.122,0.028l0,0c-0.007-0.003-0.015,0-0.02,0.006s-0.003,0.015,0.001,0.02s0.009,0.01,0.009,0.018
	c-0.001,0.027-0.034,0.017-0.045,0.034c0,0,0,0,0,0.001c-0.001,0.001-0.001,0.002-0.001,0.004c0,0.004,0.001,0.007,0.003,0.01
	c0.003,0.002,0.006,0.003,0.01,0.002c0.015-0.003,0.027-0.016,0.044-0.018c0.03-0.002,0.007,0.075-0.002,0.086
	c-0.011,0.013-0.089,0.04-0.114,0.043c-0.016,0.002-0.026,0.003-0.031,0.009c-0.005,0.005-0.008,0.038,0.014,0.048
	c0.032,0.016,0.063-0.014,0.096-0.004l0,0c0.032,0.008,0.06,0.024,0.082,0.048c0.001,0.002,0.004,0.003,0.006,0.004
	c0.011,0.004,0.022,0.004,0.033-0.001c0.002-0.001,0.005-0.003,0.007-0.004c0.008-0.008,0.018-0.01,0.027-0.011
	c0.006,0,0.013,0.004,0.016,0.011c0.002,0.007,0,0.014-0.006,0.019c-0.024,0.017-0.048,0.035-0.082,0.03
	c-0.018-0.001-0.036-0.002-0.054,0c-0.055,0.006-0.107,0.031-0.147,0.07c-0.013,0.013-0.027,0.027-0.04,0.04
	c-0.007,0.007-0.008,0.018-0.001,0.026c0.006,0.008,0.017,0.01,0.025,0.004c0.006-0.004,0.012-0.007,0.02-0.011
	c0.023-0.015,0.066-0.033,0.09,0.013c0,0,0,0,0,0c0.003,0,0.007,0,0.01-0.002c0.032-0.024,0.048-0.068,0.095-0.072
	c0.033-0.002,0.057,0.03,0.091,0.022c0.038-0.007,0.07-0.037,0.111-0.034c0.015,0,0.057,0.012,0.061,0.014
	c0.012,0.007,0.012,0.007,0.073,0.008c0.026,0,0.044,0.021,0.069,0.025c0.03,0.004,0.057-0.014,0.086-0.011c0,0,0,0,0,0l0,0
	c0.001,0,0.089-0.017,0.088-0.053c0-0.001-0.001-0.001-0.001-0.002s-0.001-0.001-0.001-0.001c-0.031-0.018-0.051-0.05-0.056-0.085
	c0-0.003,0.001-0.006,0.004-0.006c0.003-0.001,0.006,0,0.008,0.001c0.002,0.001,0.004,0.003,0.005,0.004
	c0.009,0.007,0.015,0.007,0.019,0.005c0.021-0.015,0.043-0.03,0.066-0.042c0.012-0.007,0.019-0.021,0.026-0.047
	c0.002-0.008,0.01-0.05-0.043-0.081c0,0,0,0,0,0c-0.005-0.002-0.104-0.053-0.132-0.038c-0.019,0.01-0.019,0.01-0.054-0.008
	c-0.001-0.005,0.001-0.01,0.005-0.014c0.039-0.03,0.039-0.031,0.038-0.039c-0.001-0.019-0.011-0.032-0.022-0.045
	c-0.01-0.011-0.011-0.027-0.002-0.039c0,0,0,0,0,0c0.008-0.01-0.032-0.095-0.032-0.095c-0.002-0.003-0.004-0.004-0.009-0.004
	c-0.017,0-0.034,0.001-0.05,0.001c-0.002,0-0.005,0-0.009,0.001c0,0-0.001,0-0.001-0.001c-0.001-0.001-0.001-0.003,0-0.005
	c0.005-0.021-0.015-0.034-0.017-0.053c-0.002-0.019,0.003-0.038,0.005-0.057c0.001-0.017,0-0.036-0.006-0.055
	c-0.02-0.068-0.017-0.14,0.007-0.205c0.011-0.027,0.024-0.054,0.042-0.077c0.039-0.055-0.137-0.048-0.17-0.045
	c-0.003,0-0.005-0.001-0.006-0.003c-0.001-0.002-0.001-0.005,0-0.007c0.008-0.013,0.01-0.029,0.021-0.041
	c0.016-0.016,0.038-0.021,0.056-0.032c0.041-0.025,0.007-0.041-0.008-0.044c-0.035-0.009-0.072-0.014-0.109-0.014
	c-0.014,0-0.027,0.002-0.042,0.007c-0.009,0.003-0.02,0.015-0.031,0.03c-0.021,0.03-0.048,0.058-0.077,0.082
	c-0.002,0.001-0.003,0.002-0.005,0.004c-0.009,0.006-0.019,0.007-0.028,0.003c-0.005-0.002-0.012-0.002-0.017,0
	c0,0-0.002,0-0.003,0.001c-0.01,0.005-0.018,0.014-0.023,0.022c-0.006,0.011-0.005,0.025,0.004,0.034
	c0.008,0.01,0.022,0.012,0.034,0.006c0,0,0,0,0,0.001c0.001,0.004,0.001,0.008,0,0.011c-0.007,0.014-0.009,0.03-0.015,0.045
	c0,0.001-0.002,0.003-0.004,0.003c-0.003,0-0.005-0.001-0.007-0.003c-0.007-0.012-0.011-0.012-0.016-0.011c0,0-0.001,0-0.001,0
	c-0.021,0.005-0.036,0.054-0.035,0.067c0,0.005,0.002,0.008,0.004,0.011C18.934,12.458,18.937,12.503,18.913,12.535z M33.5,20
	c0,7.456-6.044,13.5-13.5,13.5S6.5,27.456,6.5,20c0-7.456,6.044-13.5,13.5-13.5S33.5,12.544,33.5,20z M23.995,14.19
	c0-0.032,0.053-0.032,0.059-0.072c0.002-0.018-0.006-0.036-0.021-0.046c-0.019-0.013-0.028-0.009-0.052,0.001
	c-0.014,0.006-0.03,0.013-0.047,0.013c-0.014,0-0.026-0.01-0.028-0.023c-0.002-0.013,0.004-0.025,0.015-0.031
	c0.004-0.002,0.005-0.008,0.003-0.012l0,0c-0.002-0.003-0.004-0.005-0.007-0.006c-0.038-0.009-0.069-0.015-0.095-0.018
	c-0.049-0.005-0.099-0.002-0.146,0.011c-0.039,0.011-0.041,0.017-0.05,0.043c-0.024,0.068-0.034,0.094-0.042,0.106
	c-0.033,0.043-0.056,0.091-0.069,0.144c-0.005,0.02-0.015,0.037-0.039,0.048c0,0,0,0-0.002,0c0,0.001-0.014,0.122-0.013,0.135
	c0.002,0.028,0.018,0.054,0.008,0.083c-0.008,0.024-0.042,0.019-0.051,0.043c0,0,0,0.001,0,0.001
	c-0.014,0.041,0.003,0.103,0.013,0.145c0.001,0.003-0.001,0.007-0.004,0.009c-0.004,0.001-0.008,0-0.01-0.002c0,0,0,0,0,0
	c-0.018-0.017-0.026-0.011-0.031-0.003c-0.002,0.005-0.002,0.012,0.001,0.017l0,0l0.051,0.07c0.05,0.071,0.118,0.126,0.198,0.16l0,0
	c0.044,0.019,0.085-0.01,0.129-0.005c0.047,0.006,0.095-0.003,0.144-0.003c0.017,0,0.049-0.005,0.071-0.014
	c0.017-0.008,0.018-0.02,0.02-0.033c0-0.002,0-0.003,0-0.004c0.001-0.012,0.003-0.014,0.057-0.056
	c0.039-0.03,0.086-0.047,0.125-0.077c0.066-0.052,0.149,0,0.221-0.022c0.017-0.005,0.24,0.079,0.254,0.086c0,0,0,0,0,0
	c0.066,0.027,0.242,0.029,0.284,0.041c0.018,0.005,0.043,0.011,0.068,0.01c0.001-0.001,0.003-0.002,0.005-0.002
	c0.035-0.017,0.057-0.071,0.105-0.047c0.084,0.042,0.322,0.005,0.265-0.192c-0.032-0.107-0.172-0.165-0.215-0.18
	c-0.128-0.047-0.211-0.156-0.323-0.225c-0.05-0.03-0.108-0.003-0.16-0.023c-0.115-0.046-0.115-0.046-0.122-0.08
	c0-0.002,0.001-0.005,0.002-0.007c0.031-0.043,0.055-0.092,0.069-0.144c0,0,0-0.001,0-0.001c0.006-0.019,0.013-0.027-0.007-0.04
	c-0.026-0.017-0.077-0.001-0.083-0.044c-0.004-0.035,0.071-0.073,0.101-0.09c0.025-0.015,0.036-0.034,0.041-0.046
	c0.007-0.019-0.016-0.045-0.026-0.043c-0.036,0.004-0.133,0.062-0.147,0.064c0,0,0,0,0,0c-0.004,0-0.009,0.001-0.012,0.004
	c0,0,0,0,0,0l-0.222,0.129c0,0-0.001,0-0.001,0c-0.04,0.029-0.062,0.077-0.058,0.126c0.003,0.048,0.032,0.092,0.075,0.115
	c0.018,0.01,0.044,0.015,0.035,0.033l0,0c-0.004,0.01-0.126,0.125-0.139,0.126c-0.032,0.004-0.043-0.012-0.046-0.017
	c-0.001-0.002-0.002-0.004-0.002-0.007c-0.02-0.055-0.063-0.099-0.125-0.118C24.003,14.215,23.995,14.203,23.995,14.19z M30.806,20
	c0-1.119-0.192-2.25-0.388-2.847c-0.061-0.188-0.203-0.338-0.387-0.409c-0.184-0.071-0.39-0.056-0.562,0.041
	c-0.433,0.245-0.419,0.276-0.57,0.269c-0.069-0.004-0.379,0.203-0.491-0.034c-0.021-0.044-0.13-0.245-0.281,0.032
	c-0.041,0.075-0.265,0.019-0.338-0.023c-0.218-0.122-0.487-0.406-0.552-0.478c0,0,0,0-0.001,0c0,0,0,0,0,0
	c-0.074-0.086-0.29,0.032-0.131,0.267c0.53,0.79,0.623,0.797,0.773,0.875l0,0c0.071-0.053,0.061-0.07,0.153-0.083
	c0.057-0.008,0.106-0.044,0.132-0.095c0-0.001,0-0.001,0-0.002c0.029-0.059,0.084-0.102,0.149-0.116
	c0.065-0.013,0.132,0.004,0.182,0.047c0.001,0,0.001,0.001,0.002,0.001c0.092,0.079,0.21,0.006,0.308,0.052
	c0.248,0.117,0.153,0.353,0.104,0.633c0,0,0,0.001-0.001,0.002c-0.001,0-0.001,0-0.002,0c-0.023-0.004-0.044,0.013-0.045,0.036
	c-0.001,0.089,0.056,0.171,0.039,0.262c-0.001,0.003-0.003,0.006-0.006,0.008c-0.03,0.015-0.057,0.034-0.079,0.059
	c-0.071,0.075-0.076,0.17-0.137,0.255c-0.058,0.081,0.004,0.26-0.134,0.261c-0.053,0-0.23,0.102-0.257,0.218
	c-0.032,0.138-0.108,0.261-0.216,0.352c-0.08,0.067-0.188,0.155-0.337,0.271c-0.072,0.056-0.358,0.365-0.606,0.423
	c-0.034,0.008-0.07-0.005-0.09-0.034c-0.001-0.001-0.003-0.003-0.003-0.005c-0.164-0.253-0.197-0.556-0.326-0.822
	c-0.151-0.316-0.56-0.399-0.674-0.749c-0.096-0.295-0.136-0.419-0.271-0.496c-0.094-0.053-0.172-0.127-0.23-0.218
	c-0.094-0.148-0.238-0.359-0.355-0.473c-0.054-0.051-0.089-0.118-0.102-0.192c-0.005-0.032-0.054-0.03-0.056,0.003
	c-0.006,0.118,0.016,0.154-0.017,0.179c-0.028,0.021-0.062,0.01-0.086-0.015c-0.084-0.087-0.222-0.245-0.256-0.333
	c0,0,0,0.001,0,0.002c-0.009,0.033-0.002,0.07,0.018,0.099c0.182,0.259,1.069,1.541,1.092,1.662c0.147,0.807,0.772,1,1.09,1.297
	c0.061,0.056,0.1,0.128,0.115,0.206c0.015,0.074,0.05,0.138,0.106,0.19c0.059,0.054,0.117,0.047,0.45,0.005
	c0.056-0.007,0.091-0.047,0.129-0.083c0.033-0.03,0.303-0.125,0.338-0.148c0.073-0.047-0.017-0.019,0.15-0.099
	c0.066-0.032,0.143-0.229,0.13-0.005c-0.003,0.058,0.029,0.11,0.023,0.167c-0.035,0.34-0.063,0.396-0.083,0.462
	c-0.026,0.087-0.061,0.171-0.083,0.259c-0.101,0.417-0.263,0.862-0.543,1.191c-0.006,0.006-0.012,0.013-0.019,0.02
	c-0.156,0.144-0.438,0.409-0.668,0.86c-0.146,0.284-0.351,0.53-0.502,0.81c-0.051,0.095-0.063,0.119-0.019,0.246
	c0.032,0.091,0.129,0.512,0.144,1.052c0.016,0.588-0.079,0.685-0.267,0.821c-0.302,0.219-0.508,0.368-0.649,0.472
	c-0.166,0.122-0.265,0.315-0.267,0.521c0,0.076-0.019,0.171-0.07,0.286c0,0,0,0,0,0.001c0.011,0.02-0.389,0.22-0.527,0.383
	c0,0,0,0,0,0c0,0.004,0,0.008,0,0.012c0.093,0.292-1.085,1.137-1.33,1.134c-0.178-0.001-0.612,0.068-0.82,0.157
	c-0.139,0.06-0.517-0.069-0.545-0.149c-0.004-0.012-0.005-0.034,0.005-0.042c0.092-0.077-0.22-0.527-0.294-0.579
	c-0.048-0.033-0.138-0.243-0.175-0.295c-0.114-0.161,0.082-0.388-0.045-0.548c-0.007-0.008-0.013-0.017-0.02-0.026l-0.367-0.513
	c-0.057-0.08-0.22-0.174-0.22-0.272c0,0,0,0,0,0c-0.001-0.106,0.19-0.623,0.205-0.645c0.018-0.025,0.034-0.052,0.048-0.08
	c0.008-0.016,0.022-0.027,0.051-0.041c0.093-0.048,0.227-0.166,0.074-0.416c-0.009-0.015-0.009,0.051-0.057-0.295
	c-0.032-0.228-0.331-0.742-0.382-0.796c0,0-0.346-0.165-0.505-0.491c0.008-0.019,0.02-0.034,0.036-0.047
	c0.146-0.117,0.12-0.264,0.164-0.581c0.001-0.016,0.005-0.032,0.008-0.048c0,0,0-0.001,0-0.002l0.004-0.021c0,0,0-0.001,0-0.002
	c0,0,0,0,0-0.001c0.013-0.062,0.03-0.146-0.056-0.274c-0.015-0.022-0.041-0.035-0.068-0.032c-0.001,0-0.003,0-0.005,0
	c-0.046,0.004-0.087-0.03-0.092-0.077c0,0,0-0.001,0-0.001c0,0,0-0.001-0.001-0.001c-0.068-0.028-0.144-0.032-0.215-0.011
	c-0.156,0.045-0.488,0.114-0.525-0.102c-0.05-0.288-0.247-0.352-0.344-0.345c-0.412,0.029-0.762,0.384-1.187,0.355
	c-0.019-0.001-0.043-0.01-0.061-0.017c-0.368-0.138-0.764-0.142-1.138-0.213c-0.127-0.024-0.31-0.086-0.401-0.176l-0.524-0.515
	c-0.034-0.034-0.064-0.07-0.09-0.11c-0.166-0.255-0.229-0.817-0.272-0.918c-0.006-0.015-0.014-0.029-0.021-0.043l-0.045-0.085
	c0-0.001-0.001-0.001-0.001-0.002c0,0,0,0,0,0c-0.122-0.16-0.16-0.369-0.103-0.561l0.207-0.688c0.003-0.01,0.006-0.021,0.009-0.031
	c0.005-0.022,0.01-0.044,0.013-0.066c0.049-0.342-0.016-0.466-0.048-0.528c-0.06-0.114-0.06-0.114,0.236-0.526
	c0.538-0.75,0.63-0.788,0.737-0.831c0,0,0,0,0,0c0.001,0,0.001,0,0.001,0c0.234,0.027,0.677-0.259,0.669-0.414
	c-0.002-0.05-0.008-0.153,0.079-0.291c0.034-0.053,0.077-0.101,0.125-0.141l0.484-0.393c0.089-0.072,0.215-0.079,0.312-0.016l0,0
	c0.065-0.022,0.137-0.02,0.201,0.008c0.083,0.037,0.135,0.011,0.161-0.001c0.293-0.141,0.612-0.184,2.097-0.278
	c0.051-0.004,0.099,0.018,0.13,0.058l0,0.001c0.088,0.113,0.022,0.099,0.122,0.266c0.038,0.063,0,0.112-0.118,0.231
	c-0.045,0.046-0.038,0.118-0.023,0.121c0.041,0.002,0.137,0.027,0.217,0.069c0.105,0.055,0.272,0.109,0.41,0.149
	c0.126,0.036,0.237,0.109,0.321,0.209c0.054,0.066,0.79,0.505,0.76-0.092c-0.002-0.041,0.039-0.114,0.107-0.17
	c0.239-0.194,0.415,0.057,0.479,0.072c0.105,0.024,0.12,0.024,0.19,0.023c0.001,0,0.001,0,0.002,0s0,0,0.001,0
	c0.065,0.001,0.095,0.076,0.305,0.062c0.363-0.024,0.729,0.033,1.09-0.031c0.04-0.007,0.097-0.021,0.129-0.046
	c0.401-0.331-0.006-0.736,0.057-1.101c0-0.001,0-0.002-0.001-0.003c-0.001-0.001-0.002-0.001-0.002-0.001s0,0,0,0
	c-0.124,0.01-0.241,0.059-0.335,0.14c-0.034,0.029-0.076,0.05-0.132,0.056c-0.1,0.011-0.178-0.055-0.265-0.088
	c-0.044-0.017-0.093,0.005-0.11,0.049c0,0,0,0,0,0.001c-0.033,0.081-0.416,0.021-0.53-0.17c-0.035-0.058-0.087-0.104-0.15-0.129l0,0
	c0.001-0.001,0.003-0.002,0.004-0.003c0.113-0.106-0.06-0.188-0.079-0.271c-0.01-0.041,0.012-0.083,0.051-0.099
	c0.001,0,0.001-0.001,0.002-0.001c0.094-0.035,0.136-0.085,0.118-0.072c-0.04,0.03-0.087,0.046-0.136,0.049l0,0
	c-0.026,0.002-0.052-0.004-0.075-0.017c-0.055-0.031-0.118-0.047-0.181-0.047c-0.076,0-0.153,0.022-0.169,0.097
	c-0.003,0.014-0.011,0.026-0.022,0.035h0c-0.009,0.007-0.022,0.008-0.033,0.003c-0.019-0.009-0.039-0.007-0.053,0.004
	c-0.016,0.011-0.024,0.027-0.022,0.051c0.006,0.065,0.183,0.133,0.04,0.199l-0.001,0c0,0-0.062,0.036-0.067,0.039
	c-0.059,0.029-0.136-0.036-0.188-0.039c-0.017-0.001-0.032,0.006-0.05,0.006h-0.001c-0.01,0-0.017-0.004-0.019-0.006
	c0,0,0,0-0.001-0.001c-0.005-0.004-0.061-0.053-0.069-0.068c-0.022-0.037-0.024-0.041-0.035-0.053
	c-0.009-0.009-0.026-0.022-0.038-0.03c-0.028-0.02-0.046-0.051-0.048-0.085c0,0,0,0,0,0c-0.002-0.026-0.005-0.064-0.01-0.105
	c-0.011-0.092-0.057-0.175-0.129-0.233c-0.018-0.016-0.042-0.023-0.065-0.022c-0.015,0.001-0.03-0.003-0.043-0.012
	c-0.061-0.041-0.102-0.049-0.102-0.049c0,0,0,0,0,0l-0.475-0.346c-0.027-0.02-0.06-0.03-0.094-0.027
	c-0.028,0.002-0.043-0.024-0.058-0.048c-0.031-0.046-0.088-0.067-0.142-0.051c-0.002,0.001-0.004,0.001-0.006,0.002
	c-0.033,0.013-0.049,0.054-0.031,0.086c0.01,0.019,0.021,0.036,0.033,0.053l0.276,0.401c0.045,0.066,0.122,0.106,0.202,0.105
	c0.033,0,0.062,0.025,0.064,0.057c0.002,0.016,0.011,0.031,0.025,0.04c0.132,0.076,0.302,0.086,0.394,0.229
	c0,0.002,0.001,0.003,0.001,0.005l0,0c0,0,0,0,0,0.001c0,0.011-0.006,0.045-0.012,0.055c-0.01,0.018-0.045,0.026-0.055,0.017
	c-0.008-0.006-0.007-0.022-0.006-0.039c0-0.005-0.001-0.012-0.004-0.019c-0.014-0.039-0.042-0.046-0.079-0.062
	c-0.051-0.022-0.109,0.001-0.133,0.051c0,0,0,0.001,0,0.001c-0.001,0.001-0.001,0.003-0.002,0.004
	c-0.021,0.057,0.015,0.074,0.034,0.083c0.031,0.015,0.077,0.037,0.065,0.104c-0.005,0.028-0.036,0.018-0.052,0.03
	c0,0,0.01-0.01-0.045,0.101c-0.019,0.038-0.001,0.046-0.05,0.072c-0.041,0.02-0.061-0.007-0.065-0.016
	c-0.018-0.03,0.007-0.058,0.006-0.086c-0.001-0.013-0.001-0.025,0.037-0.041c0.054-0.022-0.003-0.111-0.036-0.162
	c0,0,0-0.001-0.001-0.002c-0.067-0.115-0.023-0.021-0.1-0.093c-0.047-0.044-0.171-0.118-0.196-0.149
	c-0.163-0.201-0.43-0.297-0.57-0.522c-0.028-0.045-0.069-0.082-0.118-0.104c-0.032-0.015-0.07-0.025-0.112-0.022
	c-0.041,0.001-0.233,0.111-0.388,0.2c-0.145,0.083-0.25-0.114-0.392-0.057c-0.153,0.061-0.062,0.261-0.192,0.335
	c-0.147,0.084-0.325,0.112-0.455,0.231c-0.005,0.005-0.009,0.013-0.013,0.02c-0.04,0.092-0.11,0.131-0.114,0.155
	c-0.004,0.019-0.006,0.027,0.002,0.053c0.017,0.055,0,0.116-0.044,0.153l0,0c-0.028,0.025-0.004,0.104-0.03,0.118
	c-0.048,0.025-0.101-0.002-0.15,0.012c-0.074,0.021-0.077,0.117-0.15,0.139c-0.094,0.028-0.186-0.031-0.28-0.01
	c-0.213,0.046-0.213,0.046-0.221,0.065c-0.007,0.018-0.025,0.047-0.055,0.047c-0.111-0.003-0.07-0.141-0.122-0.201
	c-0.056-0.064-0.072-0.058-0.098-0.047c-0.035,0.015-0.092,0.04-0.109,0.03c-0.024-0.014-0.043-0.037-0.071-0.045
	c-0.019-0.005-0.035-0.018-0.043-0.036c-0.016-0.031,0.024-0.157,0.033-0.193c0.005-0.022,0.004-0.045-0.004-0.066
	c-0.01-0.025-0.033-0.041-0.06-0.042c-0.005,0-0.01-0.002-0.013-0.006c-0.031-0.034,0.096-0.163,0.131-0.228
	c0.005-0.01,0.011-0.025,0.015-0.036c0.108-0.277,0.108-0.372,0.086-0.464c-0.01-0.042,0.02-0.081,0.062-0.083
	c0.022-0.001,0.047-0.002,0.067-0.003c0,0,0,0,0,0c0.045-0.052,0.12-0.067,0.181-0.036c0.084,0.042,0.251,0.103,0.537,0.116
	c0.069,0.003,0.138,0.018,0.203,0.043c0.061,0.022,0.112-0.03,0.135-0.059c0.053-0.068,0.045-0.152,0.056-0.232
	c0.005-0.042,0.029-0.079,0.064-0.103l0,0c0.009-0.006,0.014-0.018,0.012-0.028c-0.003-0.016-0.015-0.135-0.03-0.136
	c-0.001,0-0.001,0-0.001,0c-0.119-0.012-0.081-0.164-0.158-0.213c-0.066-0.042-0.063-0.07-0.227-0.088
	c-0.023-0.002,0.032-0.116,0.127-0.146c0.005-0.001,0.012-0.001,0.017,0.001c0.058,0.029,0.123,0.043,0.188,0.04
	c0.025-0.001,0.048-0.014,0.062-0.034s0.019-0.046,0.012-0.069c0,0,0-0.001,0-0.002c-0.007-0.024,0.015-0.062,0.042-0.044
	c0.054,0.035,0.082,0.059,0.176,0.045c0.023-0.003,0.042-0.021,0.048-0.044c0.002-0.011,0.009-0.021,0.019-0.026
	c0.106-0.06,0.152-0.086,0.173-0.111c0.05-0.058,0.109-0.107,0.177-0.144c0.096-0.054,0.143-0.088,0.234-0.171
	c0.04-0.036,0.086-0.06,0.139-0.073c0.016-0.003,0.026-0.019,0.024-0.035c-0.001-0.002,0-0.006,0.001-0.008
	c0.018-0.023,0.044-0.038,0.073-0.04c0.066-0.006,0.106-0.006,0.135-0.006c0,0,0,0,0.001-0.001c0.019-0.022,0.047-0.035,0.077-0.033
	c0.07,0.001,0.163,0.034,0.147-0.158c-0.022-0.173,0.036-0.347,0.156-0.473c0,0,0,0,0-0.001c0.054,0.023,0.042,0.079,0.052,0.137
	c0.005,0.036-0.005,0.071-0.029,0.098c0,0,0,0-0.001,0.001c-0.23,0.255,0.064,0.247,0.073,0.312c0,0,0,0,0,0.001
	c0.001,0.011,0.007,0.021,0.017,0.027c0.009,0.006,0.021,0.007,0.031,0.003c0.01-0.003,0.237-0.099,0.246-0.092
	c0.043,0.027,0.011,0.041,0.045,0.072c0,0,0,0.001,0.001,0.001c0.051,0.047,0.127,0.057,0.189,0.024
	c0.131-0.069,0.281-0.092,0.427-0.065c0.072,0.013,0.249-0.159,0.216-0.254l0,0c-0.021-0.059-0.023-0.122-0.011-0.181
	c0.009-0.038-0.006-0.059,0.037-0.087c0.021-0.014,0.048-0.017,0.073-0.006c0.03,0.014,0.065,0.015,0.097,0.001
	c0.042-0.018,0.071-0.057,0.074-0.103c0,0,0,0,0,0c0.001-0.009-0.003-0.018-0.011-0.023c-0.039-0.024-0.062-0.07-0.055-0.117
	c0.007-0.052,0.046-0.093,0.098-0.103c0.151-0.028,0.178,0.057,0.321-0.071c0.008-0.008,0.012-0.019,0.009-0.03
	c-0.003-0.011-0.012-0.02-0.023-0.022c0,0,0,0,0,0c-0.118-0.026-0.242-0.018-0.356,0.022l-0.138,0.048c0,0,0,0,0,0s0,0-0.001,0l0,0
	c-0.023,0.015-0.051,0.022-0.079,0.02c-0.097-0.008-0.157-0.099-0.195-0.2c-0.043-0.117-0.028-0.249,0.04-0.353
	c0.034-0.052,0.051-0.118,0.089-0.167c0.016-0.02,0.021-0.045,0.016-0.071c-0.016-0.069-0.136-0.1-0.203-0.085
	c-0.134,0.03-0.044,0.19-0.098,0.274c-0.031,0.048-0.161,0.083-0.172,0.148c-0.028,0.169-0.043,0.258-0.032,0.316
	c0.025,0.125,0.012,0.254-0.037,0.373c0,0.001,0,0.001-0.001,0.002c-0.038,0.101,0.041,0.207-0.012,0.307
	c-0.062,0.117-0.204,0.024-0.237,0.166c-0.014,0.06-0.13-0.028-0.169-0.068c-0.004-0.116-0.049-0.169-0.082-0.26
	c-0.026-0.074-0.086-0.13-0.16-0.152c-0.199-0.059-0.239,0.135-0.415,0.081c-0.141-0.043-0.24-0.171-0.248-0.319
	c-0.007-0.147,0.078-0.284,0.215-0.342c0,0,0,0,0,0c0.464-0.195,0.55-0.359,0.581-0.469c0.008-0.025,0.026-0.044,0.052-0.051
	c0,0,0,0,0,0l0,0c0.005-0.025,0.018-0.048,0.037-0.065c0.048-0.044,0.08-0.103,0.123-0.152c0.047-0.053,0.095-0.136,0.095-0.136l0,0
	c0,0,0.241-0.236,0.495-0.316c0.118-0.037,0.204-0.036,0.232-0.03c0.029,0.006,0.073,0.015,0.141,0.028l0,0
	c-0.004,0.023,0.002,0.046,0.017,0.065c0.032,0.043,0.137,0.033,0.264,0.092c0.147,0.067,0.324,0.047,0.483,0.08
	c0.064,0.014,0.108,0.074,0.101,0.14c-0.008,0.065-0.064,0.115-0.131,0.113c-0.045-0.001-0.087,0.027-0.103,0.07
	c-0.015,0.043-0.002,0.091,0.034,0.12c0.057,0.045,0.122,0.08,0.189,0.104c0.081,0.029,0.21,0.049,0.154-0.013c0,0,0,0,0,0
	c-0.021-0.023-0.049-0.036-0.079-0.036c-0.11,0-0.075-0.102-0.016-0.074c0.066,0.029,0.249,0.049,0.122-0.073
	c-0.016-0.015-0.017-0.04-0.003-0.057c0.021-0.026,0.038-0.057,0.05-0.088c0.026-0.067,0.021-0.045,0.107-0.019
	c0.015,0.004,0.03,0.001,0.042-0.007c0.024-0.017,0.057-0.03,0.034-0.048c-0.021-0.015,0.021-0.05,0.036-0.045
	c0.025,0.008,0.053,0,0.069-0.02c0.013-0.016,0.017-0.038,0.012-0.057c-0.015-0.049,0.026-0.183,0.096-0.209
	c0.017-0.007,0.036-0.007,0.053-0.001c0,0,0,0,0,0c0.015-0.014,0.032-0.024,0.051-0.031c0.032-0.012,0.085-0.035,0.123-0.068
	c0.04-0.034,0.092-0.046,0.142-0.034c0,0,0.001,0,0.001,0c0.016-0.017,0.015-0.044-0.001-0.061
	c-0.029-0.029-0.131-0.081-0.116-0.121c0.004-0.012,0.067-0.028,0.076-0.082c0.006-0.036-0.014-0.072-0.049-0.086
	c-1.046-0.411-2.172-0.662-3.348-0.727c-0.217,0.133-0.434,0.283-0.629,0.444c-0.712,0.59-1.837,0.835-1.812,0.77
	c-0.107,0.001-0.136-0.028-0.136-0.028c-0.035,0.009-0.066,0.029-0.096,0.008c0,0,0,0,0,0c0.001-0.014-0.005-0.028-0.017-0.036
	c-0.038-0.025-0.111,0.034-0.289,0.125c-0.001,0-0.001,0-0.002,0.001c-0.003,0.001-0.006,0.003-0.01,0.005
	c-0.075,0.04-0.159,0.049-0.216,0.051c-0.042,0-0.081,0.008-0.119,0.023c-0.006,0.002-0.013,0-0.016-0.005
	c-0.013-0.021,0.052-0.045,0.075-0.054c0.021-0.008,0.011-0.033-0.078,0.019c-0.019,0.011-0.042,0.014-0.063,0.008
	c-0.09-0.023-0.197,0.048-0.268,0.108c-0.011,0.009-0.025,0.015-0.043,0.007c-0.024-0.01-0.046-0.007-0.039,0.031
	c0.008,0.042-0.227,0.146-0.231,0.128c-0.005-0.013-0.018-0.02-0.031-0.018c-0.031,0.006-0.068,0.031-0.089,0.071
	c-0.038,0.071-0.14,0.083-0.19,0.125c-0.052,0.043-0.128,0.086-0.128,0.086c-0.028,0.033-0.047,0.051-0.077,0.051
	c-0.029,0.002-0.046-0.05-0.034-0.069c0.008-0.012,0.064-0.067,0.051-0.07c-0.006-0.001-0.01-0.005-0.013-0.01
	c-0.01-0.019,0.035-0.038,0.023-0.061c-0.007-0.015-0.092-0.02-0.1-0.028c-0.005-0.005-0.006-0.014-0.002-0.021
	c0.053-0.107,0.06-0.114,0.132-0.186c0,0,0,0,0-0.001c-0.008-0.011-0.008-0.026,0-0.037c0.04-0.059,0.173-0.234,0.329-0.256
	c0.041-0.006,0.015-0.014,0.015-0.014c-0.039-0.015-0.089-0.026-0.06-0.057c0.055-0.061,0.14-0.141,0.234-0.188
	c0.045-0.022,0.087-0.05,0.126-0.082c0.039-0.032,0.168-0.089,0.309-0.095c0,0,0,0,0.001,0c0.117-0.007,0.427-0.219,0.429-0.222h0
	c-0.009-0.009,0.005-0.04,0.002-0.057c-0.001-0.006,0.002-0.013,0.008-0.016c0.031-0.016,0.066-0.022,0.097-0.036
	c0.004-0.001,0.007-0.006,0.008-0.011c0.002-0.011-0.011-0.019-0.023-0.015c-0.064,0.024-0.091,0.034-0.106,0.039
	c-0.008,0.002-0.017-0.001-0.021-0.009s-0.002-0.017,0.004-0.022c0.074-0.064,0.173-0.065,0.26-0.095
	c0.038-0.013,0.039-0.094-0.041-0.081C17.333,9.5,16.977,9.617,16.605,9.74c0,0,0,0,0,0c0.002,0.012-0.075,0.048-0.084,0.058
	c-0.005,0.004-0.006,0.011-0.005,0.018c0,0,0,0,0,0.001c0.005,0,0.006,0.006,0.003,0.009c-0.015,0.011-0.042,0-0.051,0.015
	c-0.01,0.02,0.025,0.012,0.032,0.025c0.005,0.01,0.003,0.021-0.005,0.03l0,0c-0.011,0.012-0.069,0.038-0.079,0.026
	c-0.008-0.01-0.009-0.019-0.021-0.011c-0.042,0.027-0.067,0.042-0.091,0.047c-0.084,0.014-0.19,0.06-0.19,0.06
	c0.013-0.011,0.052-0.048,0.059-0.062c0.023-0.046,0.048-0.061,0.076-0.069c0.02-0.005,0.023-0.033-0.066,0.001
	c-0.081,0.031-0.156,0.078-0.219,0.137c-0.053,0.05-0.115,0.104-0.16,0.127c0.009-0.015,0.002-0.018-0.004-0.015
	c-0.005,0.003-0.048,0.042-0.064,0.037c-0.054-0.015,0.016-0.044,0.016-0.098c0.006-0.009,0.013-0.016,0.021-0.022l0,0
	c-0.062,0.026-0.117,0.065-0.162,0.114c-0.036,0.04-0.065,0.086-0.104,0.048c-0.019-0.019-0.046-0.023-0.07-0.013
	c-0.149,0.07-0.296,0.143-0.441,0.219c-0.016,0.009-0.03,0.018-0.043,0.029c-0.01,0.008-0.017,0.021-0.018,0.033
	c-0.002,0.016-0.029,0.05-0.039,0.066c-0.004,0.007-0.004,0.017,0,0.023c0.013,0.021,0.058,0.006,0.081-0.002
	c0.033-0.011,0.069,0.002,0.087,0.033c0.018,0.029,0.013,0.066-0.011,0.09c-0.02,0.02-0.039,0.042-0.056,0.065
	c-0.036,0.047-0.069,0.098-0.121,0.129c-0.032,0.02-0.061,0.042-0.088,0.067c-0.28,0.251-0.29,0.708-0.495,0.8
	c-0.001,0-0.001,0-0.002,0c-0.158,0.07-0.212,0.009-0.401,0.08c-0.037,0.014-0.072,0.004-0.106-0.005
	c-0.03-0.008-0.053-0.029-0.065-0.058l0,0c-0.041-0.105-0.16-0.157-0.266-0.116c-0.018,0.006-0.037,0.01-0.057,0.004
	c0,0-0.001,0-0.001,0c0,0,0,0,0,0c-0.035,0.01-0.256,0.081-0.241,0.112c0,0,0.391-0.119,0.303,0.092h0
	c-0.015,0.004-0.027,0.015-0.033,0.028c-0.009,0.02-0.021,0.031-0.053,0.039c-0.038,0.009-0.077-0.002-0.105-0.028c0,0,0,0-0.001,0
	c-0.02,0.003-0.028,0.052-0.021,0.066c0.01,0.017,0.062,0.017,0.009,0.05c-0.031,0.02-0.074,0.03-0.088,0.064
	c-0.017,0.041-0.038,0.08-0.062,0.115c-0.025,0.039,0.03,0.05-0.014,0.085c-0.051,0.042-0.229,0.001-0.29,0.013
	c0,0-0.107,0.011-0.171,0.033s-0.18,0.051-0.244,0.128c-0.11,0.133-0.1,0.16-0.229,0.125c-0.007-0.002-0.015,0-0.021,0.006
	c-1.307,1.387-2.251,3.12-2.681,5.046c0,0.001-0.001,0.003-0.001,0.005c-0.028,0.123-0.061,0.273-0.108,0.555
	c0,0.007,0,0.013,0.001,0.02c0.006,0.032,0.013,0.04,0.053,0.04c0.095,0,0.176,0.067,0.194,0.16
	c0.004,0.027,0.021,0.046,0.042,0.055c0.021,0.008,0.045,0.007,0.067-0.009c0.014-0.011,0.096,0.06,0.101,0.146
	c0.003,0.046,0.021,0.1,0.03,0.146c0.011,0.056-0.003,0.113-0.04,0.157c-0.005,0.007-0.008,0.016-0.005,0.024
	c0.045,0.177,0.251,0.934,0.294,0.973c0.024-0.004,0.044,0.004,0.058,0.019c0.416,0.469,0.885,1.234,0.872,1.474
	c-0.094,0.176-0.084,0.167-0.006,0.262c0.145,0.178,0.143,0.186,0.087,0.369h0c0.032-0.052,0.088-0.083,0.15-0.083
	c0.061,0,0.117,0.031,0.149,0.083c0.024,0.039,0.048,0.077,0.081,0.106c0.085,0.077,0.129,0.189,0.119,0.304
	c0,0,0.132,0.001,0.314,0.139c0.231,0.174,1.048,1.109,1.08,1.365c0.014,0.114-0.032,0.226-0.091,0.325
	c-0.067,0.113-0.285,0.35-0.323,0.479c-0.018,0.063-0.119,0.092-0.119,0.13c0.001,0.052,0.017,0.159,0.091,0.373
	c0.022,0.063,0.074,0.53,0.048,0.718c-0.015,0.11-0.015,0.13,0.012,0.251c0.009,0.038-0.086,0.146-0.151,0.099
	c-0.082-0.059-0.151-0.049-0.159-0.033l0,0c-0.113,0.186-0.521,0.219-0.43,0.417c0.026,0.058,0.054,0.117,0.077,0.176
	c0.027,0.07,0.042,0.145,0.045,0.22c0,0.033,0.113,0.271,0.203,0.365c1.967,2.058,4.739,3.339,7.811,3.339
	C25.967,30.806,30.806,25.967,30.806,20z M18.403,13.114c0.044-0.02,0.086-0.046,0.134-0.06c0,0,0.001,0,0.001,0
	c0.066-0.018,0.123,0,0.143-0.025c0.019-0.024,0.052-0.069,0.067-0.104c0.008-0.018-0.011-0.043,0.012-0.056
	c0.026-0.014,0.003-0.042,0.01-0.062c0.018-0.054,0.03-0.055,0.052-0.059c0.021-0.002,0.041-0.005,0.047-0.017
	c0.034-0.05-0.086-0.194-0.161-0.175c-0.078,0.02-0.141,0.134-0.167,0.132c-0.033-0.002-0.048-0.003-0.07,0.014
	c-0.017,0.013-0.02,0.035-0.032,0.051c-0.015,0.02-0.035,0.034-0.05,0.053c-0.012,0.016-0.017,0.029,0.001,0.045
	c0.013,0.012,0.02,0.018-0.019,0.068c-0.032,0.041-0.084,0.063-0.107,0.114c-0.008,0.018-0.007,0.055-0.004,0.07
	C18.271,13.156,18.353,13.135,18.403,13.114z"/>
</svg>
