<?xml version="1.0" encoding="utf-8"?>
<!-- Generator: Adobe Illustrator 16.0.0, SVG Export Plug-In . SVG Version: 6.00 Build 0)  -->
<!DOCTYPE svg PUBLIC "-//W3C//DTD SVG 1.1//EN" "http://www.w3.org/Graphics/SVG/1.1/DTD/svg11.dtd">
<svg version="1.1" id="Laag_1" xmlns="http://www.w3.org/2000/svg" xmlns:xlink="http://www.w3.org/1999/xlink" x="0px" y="0px"
	 width="40.032px" height="25.485px" viewBox="0 0 40.032 25.485" enable-background="new 0 0 40.032 25.485" xml:space="preserve">
<path id="behance-icon" fill="#B2B2B2" d="M18.957,5.882c0.517,0.719,0.775,1.578,0.775,2.579c0,1.031-0.261,1.86-0.782,2.487
	c-0.292,0.352-0.721,0.672-1.289,0.963c0.862,0.313,1.513,0.81,1.952,1.49c0.439,0.68,0.659,1.505,0.659,2.475
	c0,1.001-0.251,1.899-0.753,2.694c-0.319,0.527-0.718,0.97-1.196,1.33c-0.54,0.413-1.176,0.695-1.909,0.848
	c-0.733,0.153-1.529,0.229-2.387,0.229H6.414V4.083h8.165C16.639,4.114,18.098,4.713,18.957,5.882z M9.784,7.017v3.725h4.106
	c0.733,0,1.329-0.14,1.787-0.418s0.686-0.773,0.686-1.484c0-0.787-0.302-1.307-0.907-1.559c-0.521-0.176-1.187-0.264-1.996-0.264
	H9.784z M9.784,13.539v4.504h4.102c0.732,0,1.302-0.099,1.71-0.298c0.74-0.367,1.11-1.07,1.11-2.109
	c0-0.879-0.359-1.482-1.076-1.811c-0.401-0.183-0.963-0.279-1.688-0.287H9.784L9.784,13.539z M30.353,8.737
	c0.871,0.39,1.591,1.006,2.159,1.848c0.511,0.742,0.843,1.603,0.995,2.583c0.088,0.574,0.124,1.401,0.107,2.48h-9.099
	c0.05,1.253,0.486,2.131,1.306,2.636c0.499,0.313,1.099,0.47,1.801,0.47c0.744,0,1.349-0.191,1.814-0.574
	c0.253-0.206,0.478-0.493,0.672-0.859h3.335c-0.088,0.741-0.492,1.493-1.21,2.258c-1.12,1.215-2.687,1.822-4.7,1.822
	c-1.663,0-3.13-0.512-4.401-1.537s-1.906-2.692-1.906-5.001c0-2.164,0.574-3.824,1.721-4.979c1.147-1.155,2.636-1.732,4.467-1.732
	C28.501,8.152,29.481,8.347,30.353,8.737z M25.466,11.559c-0.462,0.476-0.751,1.12-0.87,1.934h5.627
	c-0.06-0.867-0.35-1.525-0.87-1.974c-0.521-0.449-1.167-0.674-1.938-0.674C26.577,10.845,25.927,11.083,25.466,11.559z
	 M30.872,5.054h-7.34V6.76h7.34V5.054z"/>
</svg>
